<svg width="24" height="16" viewBox="0 0 24 16" fill="none" xmlns="http://www.w3.org/2000/svg">
<path d="M12 0C8.26145 0 5.20787 2.86022 4.82617 6.5H4.5C2.02364 6.5 0 8.52364 0 11C0 13.4764 2.02364 15.5 4.5 15.5H12H19.5C21.9764 15.5 24 13.4764 24 11C24 8.52364 21.9764 6.5 19.5 6.5H19.1738C18.7921 2.86022 15.7386 0 12 0ZM12 1.5C15.1847 1.5 17.75 4.06529 17.75 7.25C17.75 7.44891 17.829 7.63966 17.9697 7.78031C18.1103 7.92096 18.3011 7.99998 18.5 8H19.5C21.1656 8 22.5 9.33436 22.5 11C22.5 12.6656 21.1656 14 19.5 14H12H4.5C2.83436 14 1.5 12.6656 1.5 11C1.5 9.33436 2.83436 8 4.5 8H5.5C5.69891 7.99998 5.88966 7.92096 6.03031 7.78031C6.17096 7.63966 6.24998 7.44891 6.25 7.25C6.25 4.06529 8.81529 1.5 12 1.5Z" fill="#6B7280"/>
</svg>
